<mxfile host="app.diagrams.net" agent="Mozilla/5.0 (Windows NT 10.0; Win64; x64; rv:109.0) Gecko/20100101 Firefox/110.0" version="24.7.7">
  <diagram name="Página-1" id="_eFtoGg1Sw4uJ81yzZ4d">
    <mxGraphModel dx="1616" dy="859" grid="1" gridSize="10" guides="1" tooltips="1" connect="1" arrows="1" fold="1" page="1" pageScale="1" pageWidth="827" pageHeight="1169" math="0" shadow="0">
      <root>
        <mxCell id="0" />
        <mxCell id="1" parent="0" />
        <mxCell id="PDH9jdPEW_UjpKn51FQ6-25" value="&lt;div&gt;&lt;br&gt;&lt;/div&gt;&lt;div&gt;&lt;br&gt;&lt;/div&gt;" style="html=1;whiteSpace=wrap;" vertex="1" parent="1">
          <mxGeometry x="-120" y="160" width="630" height="760" as="geometry" />
        </mxCell>
        <mxCell id="PDH9jdPEW_UjpKn51FQ6-1" value="" style="ellipse;html=1;shape=startState;fillColor=#000000;strokeColor=#ff0000;" vertex="1" parent="1">
          <mxGeometry x="210" y="190" width="30" height="30" as="geometry" />
        </mxCell>
        <mxCell id="PDH9jdPEW_UjpKn51FQ6-2" value="" style="edgeStyle=orthogonalEdgeStyle;html=1;verticalAlign=bottom;endArrow=open;endSize=8;strokeColor=#ff0000;rounded=0;" edge="1" source="PDH9jdPEW_UjpKn51FQ6-1" parent="1">
          <mxGeometry relative="1" as="geometry">
            <mxPoint x="225" y="300" as="targetPoint" />
          </mxGeometry>
        </mxCell>
        <mxCell id="PDH9jdPEW_UjpKn51FQ6-7" style="edgeStyle=orthogonalEdgeStyle;rounded=0;orthogonalLoop=1;jettySize=auto;html=1;exitX=1;exitY=0.5;exitDx=0;exitDy=0;exitPerimeter=0;entryX=0.5;entryY=0;entryDx=0;entryDy=0;" edge="1" parent="1" source="PDH9jdPEW_UjpKn51FQ6-4" target="PDH9jdPEW_UjpKn51FQ6-6">
          <mxGeometry relative="1" as="geometry" />
        </mxCell>
        <mxCell id="PDH9jdPEW_UjpKn51FQ6-8" style="edgeStyle=orthogonalEdgeStyle;rounded=0;orthogonalLoop=1;jettySize=auto;html=1;exitX=0;exitY=0.5;exitDx=0;exitDy=0;exitPerimeter=0;entryX=0.5;entryY=0;entryDx=0;entryDy=0;" edge="1" parent="1" source="PDH9jdPEW_UjpKn51FQ6-4" target="PDH9jdPEW_UjpKn51FQ6-5">
          <mxGeometry relative="1" as="geometry" />
        </mxCell>
        <mxCell id="PDH9jdPEW_UjpKn51FQ6-4" value="USUARIO QUER REGISTRAR" style="strokeWidth=2;html=1;shape=mxgraph.flowchart.decision;whiteSpace=wrap;" vertex="1" parent="1">
          <mxGeometry x="175" y="300" width="100" height="100" as="geometry" />
        </mxCell>
        <mxCell id="PDH9jdPEW_UjpKn51FQ6-5" value="&lt;div&gt;Usuario fornece Informações&lt;/div&gt;" style="html=1;whiteSpace=wrap;" vertex="1" parent="1">
          <mxGeometry x="40" y="420" width="110" height="50" as="geometry" />
        </mxCell>
        <mxCell id="PDH9jdPEW_UjpKn51FQ6-24" style="edgeStyle=orthogonalEdgeStyle;rounded=0;orthogonalLoop=1;jettySize=auto;html=1;exitX=0.5;exitY=1;exitDx=0;exitDy=0;entryX=1;entryY=0.5;entryDx=0;entryDy=0;" edge="1" parent="1" source="PDH9jdPEW_UjpKn51FQ6-6" target="PDH9jdPEW_UjpKn51FQ6-19">
          <mxGeometry relative="1" as="geometry" />
        </mxCell>
        <mxCell id="PDH9jdPEW_UjpKn51FQ6-6" value="BLOQUEIO DO SISTEMA" style="html=1;whiteSpace=wrap;" vertex="1" parent="1">
          <mxGeometry x="304" y="420" width="110" height="50" as="geometry" />
        </mxCell>
        <mxCell id="PDH9jdPEW_UjpKn51FQ6-9" value="Sim" style="text;html=1;align=center;verticalAlign=middle;resizable=0;points=[];autosize=1;strokeColor=none;fillColor=none;" vertex="1" parent="1">
          <mxGeometry x="95" y="328" width="50" height="30" as="geometry" />
        </mxCell>
        <mxCell id="PDH9jdPEW_UjpKn51FQ6-10" value="Não" style="text;html=1;align=center;verticalAlign=middle;resizable=0;points=[];autosize=1;strokeColor=none;fillColor=none;" vertex="1" parent="1">
          <mxGeometry x="295" y="328" width="50" height="30" as="geometry" />
        </mxCell>
        <mxCell id="PDH9jdPEW_UjpKn51FQ6-15" style="edgeStyle=orthogonalEdgeStyle;rounded=0;orthogonalLoop=1;jettySize=auto;html=1;exitX=1;exitY=0.5;exitDx=0;exitDy=0;exitPerimeter=0;entryX=0.5;entryY=0;entryDx=0;entryDy=0;" edge="1" parent="1" source="PDH9jdPEW_UjpKn51FQ6-11" target="PDH9jdPEW_UjpKn51FQ6-14">
          <mxGeometry relative="1" as="geometry" />
        </mxCell>
        <mxCell id="PDH9jdPEW_UjpKn51FQ6-16" style="edgeStyle=orthogonalEdgeStyle;rounded=0;orthogonalLoop=1;jettySize=auto;html=1;exitX=0;exitY=0.5;exitDx=0;exitDy=0;exitPerimeter=0;entryX=0.5;entryY=0;entryDx=0;entryDy=0;" edge="1" parent="1" source="PDH9jdPEW_UjpKn51FQ6-11" target="PDH9jdPEW_UjpKn51FQ6-13">
          <mxGeometry relative="1" as="geometry" />
        </mxCell>
        <mxCell id="PDH9jdPEW_UjpKn51FQ6-11" value="INFORMAÇÕES VALIDAS?" style="strokeWidth=2;html=1;shape=mxgraph.flowchart.decision;whiteSpace=wrap;" vertex="1" parent="1">
          <mxGeometry x="45" y="534.5" width="100" height="100" as="geometry" />
        </mxCell>
        <mxCell id="PDH9jdPEW_UjpKn51FQ6-12" style="edgeStyle=orthogonalEdgeStyle;rounded=0;orthogonalLoop=1;jettySize=auto;html=1;exitX=0.5;exitY=1;exitDx=0;exitDy=0;entryX=0.5;entryY=0;entryDx=0;entryDy=0;entryPerimeter=0;" edge="1" parent="1" source="PDH9jdPEW_UjpKn51FQ6-5" target="PDH9jdPEW_UjpKn51FQ6-11">
          <mxGeometry relative="1" as="geometry" />
        </mxCell>
        <mxCell id="PDH9jdPEW_UjpKn51FQ6-22" style="edgeStyle=orthogonalEdgeStyle;rounded=0;orthogonalLoop=1;jettySize=auto;html=1;exitX=0.5;exitY=1;exitDx=0;exitDy=0;entryX=0;entryY=0.5;entryDx=0;entryDy=0;" edge="1" parent="1" source="PDH9jdPEW_UjpKn51FQ6-13" target="PDH9jdPEW_UjpKn51FQ6-19">
          <mxGeometry relative="1" as="geometry" />
        </mxCell>
        <mxCell id="PDH9jdPEW_UjpKn51FQ6-13" value="Cadastro Feito, Aguarde de Confirmação" style="html=1;whiteSpace=wrap;" vertex="1" parent="1">
          <mxGeometry x="-80" y="660" width="110" height="50" as="geometry" />
        </mxCell>
        <mxCell id="PDH9jdPEW_UjpKn51FQ6-23" style="edgeStyle=orthogonalEdgeStyle;rounded=0;orthogonalLoop=1;jettySize=auto;html=1;exitX=0.5;exitY=1;exitDx=0;exitDy=0;entryX=1;entryY=0.5;entryDx=0;entryDy=0;" edge="1" parent="1" source="PDH9jdPEW_UjpKn51FQ6-14" target="PDH9jdPEW_UjpKn51FQ6-19">
          <mxGeometry relative="1" as="geometry" />
        </mxCell>
        <mxCell id="PDH9jdPEW_UjpKn51FQ6-14" value="BLOQUEIO DO SISTEMA" style="html=1;whiteSpace=wrap;" vertex="1" parent="1">
          <mxGeometry x="145" y="660" width="110" height="50" as="geometry" />
        </mxCell>
        <mxCell id="PDH9jdPEW_UjpKn51FQ6-17" value="Sim" style="text;html=1;align=center;verticalAlign=middle;resizable=0;points=[];autosize=1;strokeColor=none;fillColor=none;" vertex="1" parent="1">
          <mxGeometry x="-15" y="558" width="50" height="30" as="geometry" />
        </mxCell>
        <mxCell id="PDH9jdPEW_UjpKn51FQ6-18" value="Não" style="text;html=1;align=center;verticalAlign=middle;resizable=0;points=[];autosize=1;strokeColor=none;fillColor=none;" vertex="1" parent="1">
          <mxGeometry x="145" y="558" width="50" height="30" as="geometry" />
        </mxCell>
        <mxCell id="PDH9jdPEW_UjpKn51FQ6-19" value="" style="ellipse;html=1;shape=endState;fillColor=#000000;strokeColor=#ff0000;" vertex="1" parent="1">
          <mxGeometry x="90" y="850" width="30" height="30" as="geometry" />
        </mxCell>
      </root>
    </mxGraphModel>
  </diagram>
</mxfile>
